HIERARCHY
ROOT Hips
{
	OFFSET 0.000000 0.000000 0.000000
	CHANNELS 6 Xposition Yposition Zposition Zrotation Yrotation Xrotation 
	JOINT LeftUpLeg_virtual
	{
		OFFSET 0.000000 0.000000 0.000000
		CHANNELS 3 Zrotation Yrotation Xrotation
		JOINT LeftUpLeg
		{
			OFFSET 8.479694 -4.795517 -0.379053
			CHANNELS 3 Zrotation Yrotation Xrotation
			JOINT LeftLeg
			{
				OFFSET 0.485052 -32.551468 0.112863
				CHANNELS 3 Zrotation Yrotation Xrotation
				JOINT LeftFoot
				{
					OFFSET 0.438033 -32.635670 -3.012641
					CHANNELS 3 Zrotation Yrotation Xrotation
					JOINT LeftToeBase
					{
						OFFSET 0.970169 -13.225353 11.864223
						CHANNELS 3 Zrotation Yrotation Xrotation
						End Site
						{
							OFFSET 0.000000 0.000000 0.000000
						}
					}
				}
			}
		}
	}
	JOINT RightUpLeg_virtual
	{
		OFFSET 0.000000 0.000000 0.000000
		CHANNELS 3 Zrotation Yrotation Xrotation
		JOINT RightUpLeg
		{
			OFFSET -8.479694 -4.795517 -0.379053
			CHANNELS 3 Zrotation Yrotation Xrotation
			JOINT RightLeg
			{
				OFFSET -0.484100 -32.551483 0.112903
				CHANNELS 3 Zrotation Yrotation Xrotation
				JOINT RightFoot
				{
					OFFSET -0.438985 -32.635651 -3.012681
					CHANNELS 3 Zrotation Yrotation Xrotation
					JOINT RightToeBase
					{
						OFFSET -0.970169 -13.225354 11.864223
						CHANNELS 3 Zrotation Yrotation Xrotation
						End Site
						{
							OFFSET 0.000000 0.000000 0.000000
						}
					}
				}
			}
		}
	}
	JOINT Spine_virtual
	{
		OFFSET 0.000000 0.000000 0.000000
		CHANNELS 3 Zrotation Yrotation Xrotation
		JOINT Spine
		{
			OFFSET 0.000000 7.722015 1.166203
			CHANNELS 3 Zrotation Yrotation Xrotation
			JOINT Spine1
			{
				OFFSET 0.000000 12.024086 0.248766
				CHANNELS 3 Zrotation Yrotation Xrotation
				JOINT Spine2
				{
					OFFSET -0.000000 11.503036 -0.491240
					CHANNELS 3 Zrotation Yrotation Xrotation
					JOINT Neck_virtual
					{
						OFFSET 0.000000 0.000000 0.000000
						CHANNELS 3 Zrotation Yrotation Xrotation
						JOINT Neck
						{
							OFFSET 0.000000 18.430687 -3.123054
							CHANNELS 3 Zrotation Yrotation Xrotation
							JOINT Head
							{
								OFFSET -0.000000 9.051071 1.034021
								CHANNELS 3 Zrotation Yrotation Xrotation
								End Site
								{
									OFFSET 0.000000 0.000000 0.000000
								}
							}
						}
					}
					JOINT LeftShoulder_virtual
					{
						OFFSET 0.000000 0.000000 0.000000
						CHANNELS 3 Zrotation Yrotation Xrotation
						JOINT LeftShoulder
						{
							OFFSET 6.197824 13.665230 -4.064723
							CHANNELS 3 Zrotation Yrotation Xrotation
							JOINT LeftArm
							{
								OFFSET 7.778132 -0.187073 -1.709282
								CHANNELS 3 Zrotation Yrotation Xrotation
								JOINT LeftForeArm
								{
									OFFSET 21.954697 0.000000 -2.041093
									CHANNELS 3 Zrotation Yrotation Xrotation
									JOINT LeftHand
									{
										OFFSET 22.992908 0.000000 -0.870901
										CHANNELS 3 Zrotation Yrotation Xrotation
										End Site
										{
											OFFSET 0.000000 0.000000 0.000000
										}
									}
								}
							}
						}
					}
					JOINT RightShoulder_virtual
					{
						OFFSET 0.000000 0.000000 0.000000
						CHANNELS 3 Zrotation Yrotation Xrotation
						JOINT RightShoulder
						{
							OFFSET -6.197824 13.665230 -4.064723
							CHANNELS 3 Zrotation Yrotation Xrotation
							JOINT RightArm
							{
								OFFSET -7.778132 -0.187073 -1.709282
								CHANNELS 3 Zrotation Yrotation Xrotation
								JOINT RightForeArm
								{
									OFFSET -21.954697 0.000000 -2.041093
									CHANNELS 3 Zrotation Yrotation Xrotation
									JOINT RightHand
									{
										OFFSET -22.992908 0.000000 -0.870901
										CHANNELS 3 Zrotation Yrotation Xrotation
										End Site
										{
											OFFSET 0.000000 0.000000 0.000000
										}
									}
								}
							}
						}
					}
				}
			}
		}
	}
}
MOTION
Frames: 12
Frame Time: 0.033333
16.634716 84.900322 -74.201004 -179.659233 19.697176 -179.855191 -4.089314 -0.667244 12.354579 -0.283319 7.148065 -33.634666 4.448803 9.223478 22.768507 -7.616808 -11.741163 0.392374 0.000000 0.000000 0.000000 2.411382 -0.664129 11.284778 -5.135109 -4.850381 -30.765819 -1.484893 4.787082 29.139377 11.571134 11.502945 5.061936 0.000000 0.000000 0.000000 1.813940 3.200942 0.935211 -9.249244 -0.956387 -2.000702 -3.141840 -1.901498 16.835653 -0.035769 0.056259 -0.010295 -3.444084 -0.728445 18.175304 -6.349846 -13.795425 -12.876998 0.000000 0.000000 0.000000 -1.645526 -0.105041 15.336765 6.370783 -8.204792 0.598334 -54.088442 -15.062259 -6.428273 8.064601 -38.789812 1.985421 0.000000 0.000000 0.000000 -5.905803 1.733806 14.617769 28.952803 3.677634 -0.934531 61.729891 -3.078485 21.116466 -13.847271 37.558391 -0.388764 0.000000 0.000000 0.000000 
16.955015 84.789597 -73.515869 -179.673782 18.946636 -179.844796 -4.021414 -0.726757 12.410246 -0.060459 6.832869 -33.939370 4.403708 8.778389 22.240208 -8.162825 -11.711632 0.924673 0.000000 0.000000 0.000000 2.483013 -0.560547 11.535557 -4.790872 -5.819202 -30.865318 -1.240860 4.889395 31.340162 11.084166 12.086336 4.329517 0.000000 0.000000 0.000000 2.031959 3.249873 1.123386 -9.306480 -1.161648 -1.922690 -3.137718 -1.828422 17.039273 -0.028355 0.061947 -0.017065 -3.390893 -0.755961 18.295046 -6.770030 -13.688259 -12.961291 0.000000 0.000000 0.000000 -1.595038 -0.095355 15.386524 6.564672 -8.313840 0.592119 -54.331279 -14.286411 -7.672182 7.964953 -37.824543 2.258436 0.000000 0.000000 0.000000 -5.858816 1.700920 14.712596 29.039359 3.613032 -0.920190 61.606244 -2.165666 22.161879 -13.982745 38.309749 -0.327073 0.000000 0.000000 0.000000 
17.364176 84.612083 -72.747131 -179.729448 18.005712 -179.881255 -4.075750 -0.739996 12.221802 0.282204 6.448388 -34.126439 4.294067 7.625350 21.909886 -8.208085 -11.497054 1.134971 0.000000 0.000000 0.000000 2.357867 -0.507622 11.551937 -4.067595 -6.615408 -31.024772 -1.022460 4.793834 34.373859 10.554516 12.934053 3.382834 0.000000 0.000000 0.000000 2.125953 3.205757 1.084199 -9.273960 -1.413624 -1.746649 -3.104183 -1.817734 17.289905 -0.023625 0.096041 0.038294 -3.277362 -0.708618 18.398281 -7.142430 -13.437941 -13.029773 0.000000 0.000000 0.000000 -1.514060 -0.111271 15.419200 6.751490 -8.633833 0.553813 -54.547066 -13.888340 -8.542759 7.851456 -36.670763 2.606235 0.000000 0.000000 0.000000 -5.795509 1.610071 14.725442 29.140869 3.413469 -0.910613 61.543215 -1.052044 22.974168 -14.183538 39.184669 -0.320569 0.000000 0.000000 0.000000 
17.836840 84.420204 -71.953712 -179.746523 17.007871 -179.924873 -4.200295 -0.909826 11.919629 0.898130 5.801639 -34.271792 4.243371 6.539963 21.800362 -7.974713 -11.604430 1.246637 0.000000 0.000000 0.000000 2.146700 -0.714941 11.425330 -3.146182 -7.083818 -31.220658 -0.742792 4.812939 38.189435 10.109620 13.453691 2.230325 0.000000 0.000000 0.000000 2.176801 3.031010 1.001806 -9.165676 -1.558143 -1.601682 -3.082198 -1.856241 17.570817 -0.032308 -0.026865 -0.001510 -3.196304 -0.751889 18.590134 -7.495131 -13.154345 -13.160546 0.000000 0.000000 0.000000 -1.425665 -0.082243 15.558184 6.935486 -8.735242 0.443072 -54.655198 -13.787332 -9.170003 7.637243 -35.110219 2.994826 0.000000 0.000000 0.000000 -5.699195 1.632792 14.873712 29.267026 3.462538 -0.831454 61.614085 0.144397 23.675420 -14.393423 40.140281 -0.663179 0.000000 0.000000 0.000000 
18.397503 84.236916 -71.184921 -179.896569 16.251269 -179.930037 -4.236001 -1.207795 11.702213 1.514273 4.898452 -34.552390 4.600383 6.322180 21.814612 -8.056818 -11.896593 1.390987 0.000000 0.000000 0.000000 1.870654 -0.838149 11.198962 -2.237081 -7.254492 -31.227690 -0.572742 4.802782 42.347364 9.586280 14.025808 0.895067 0.000000 0.000000 0.000000 2.129735 2.655060 0.831061 -9.090785 -1.609513 -1.568506 -3.110116 -1.814789 17.787655 -0.022280 0.012950 0.016405 -3.212066 -0.691588 18.676481 -7.842602 -12.854756 -13.262568 0.000000 0.000000 0.000000 -1.377042 -0.003742 15.562086 7.038472 -8.828668 0.487256 -54.583248 -13.972658 -9.522142 7.617325 -33.133657 3.084872 0.000000 0.000000 0.000000 -5.653121 1.747533 14.883983 29.346847 3.757368 -0.659837 61.741905 1.363997 24.595518 -14.624451 41.056230 -0.830774 0.000000 0.000000 0.000000 
18.952742 84.076263 -70.488495 -179.916663 15.508301 -179.884151 -3.977435 -1.580065 11.617675 1.945466 3.751586 -34.977791 4.997073 5.818061 21.808552 -8.282157 -11.470228 1.635300 0.000000 0.000000 0.000000 1.751940 -1.045318 11.017968 -1.469628 -6.963148 -30.954428 -0.478681 4.741377 45.954561 9.230190 14.275860 -0.354808 0.000000 0.000000 0.000000 2.199637 2.244398 0.714305 -8.969361 -1.469815 -1.823529 -3.110866 -1.663036 17.895142 -0.007893 0.085376 -0.021548 -3.200014 -0.699685 18.805032 -8.128599 -12.565799 -13.350746 0.000000 0.000000 0.000000 -1.389124 -0.057193 15.664352 7.056150 -9.036851 0.488157 -54.495180 -14.109395 -9.838801 7.559480 -30.915219 3.301260 0.000000 0.000000 0.000000 -5.650803 1.814885 14.876009 29.454405 3.928626 -0.513546 61.799497 2.314493 25.557900 -14.812898 41.980371 -1.086976 0.000000 0.000000 0.000000 
19.472155 83.939339 -69.912766 -179.891050 14.580185 -179.934667 -3.606960 -1.904808 11.768671 2.159689 2.551016 -35.474896 5.297753 4.991515 21.763486 -8.538990 -11.100756 2.049898 0.000000 0.000000 0.000000 1.704895 -1.516621 11.086220 -0.927319 -6.295147 -30.234526 -0.530274 4.516960 48.180854 9.113240 14.189821 -1.278504 0.000000 0.000000 0.000000 2.373908 1.744731 0.619133 -8.818189 -1.364171 -2.259328 -3.152173 -1.592952 17.928972 0.014464 0.118449 -0.024543 -3.281160 -0.594275 18.719356 -8.287394 -12.247550 -13.435008 0.000000 0.000000 0.000000 -1.447283 -0.050263 15.562858 6.902013 -9.109736 0.566698 -54.466749 -14.120208 -9.822462 7.524642 -28.847027 3.436343 0.000000 0.000000 0.000000 -5.708766 1.685313 14.849934 29.217309 4.343799 -0.263658 61.839071 3.071746 26.532853 -14.830730 42.869798 -1.437544 0.000000 0.000000 0.000000 
19.925573 83.825493 -69.456245 -179.941197 13.726413 -179.953696 -3.294103 -2.126302 12.010935 2.405227 1.750810 -36.024460 5.287484 4.472985 21.549901 -8.431534 -11.061067 2.446845 0.000000 0.000000 0.000000 1.839417 -1.801906 11.191135 -0.582327 -5.585973 -29.065194 -0.778934 4.335365 48.486219 9.069080 14.144748 -1.838607 0.000000 0.000000 0.000000 2.632561 1.378425 0.400393 -8.672228 -1.248117 -2.919034 -3.204358 -1.514444 17.886905 -0.025000 0.103373 -0.010035 -3.348987 -0.557076 18.610174 -8.303448 -12.012983 -13.467256 0.000000 0.000000 0.000000 -1.496963 0.111961 15.470508 6.631229 -9.019892 0.675005 -54.476800 -14.166089 -9.467405 7.404781 -27.284949 3.563699 0.000000 0.000000 0.000000 -5.780277 1.780714 14.743180 29.125996 4.584820 0.057603 61.495171 3.705096 27.319688 -14.956629 43.871487 -1.990644 0.000000 0.000000 0.000000 
20.283554 83.707878 -69.052544 179.983107 12.747358 179.975321 -3.023824 -2.315042 12.215818 2.514767 0.974487 -36.282720 5.103820 4.085337 21.047243 -8.312374 -11.176751 2.943588 0.000000 0.000000 0.000000 2.144305 -2.105970 11.237962 -0.435870 -4.860687 -27.457762 -0.720628 4.407936 46.772726 9.540377 14.084934 -1.138234 0.000000 0.000000 0.000000 2.922626 1.120247 0.097304 -8.497279 -1.259485 -3.631438 -3.243868 -1.529222 17.823577 -0.006458 0.108963 -0.026774 -3.414227 -0.515615 18.425178 -8.169293 -11.790903 -13.503526 0.000000 0.000000 0.000000 -1.558134 0.191291 15.304203 6.221502 -8.840955 0.870561 -54.624312 -14.071218 -8.788187 7.215423 -26.652419 3.831019 0.000000 0.000000 0.000000 -5.885301 1.973088 14.525405 28.971040 4.689960 0.302090 61.071979 4.216191 27.665683 -14.962479 44.726254 -2.297749 0.000000 0.000000 0.000000 
20.556940 83.576317 -68.638245 179.938465 11.803474 179.955035 -2.751205 -2.485146 12.219703 2.588300 0.372014 -36.527828 4.898740 3.789279 20.736065 -8.206012 -11.437239 3.405441 0.000000 0.000000 0.000000 2.515032 -2.235464 11.094058 -0.402569 -4.071908 -25.536658 -0.548106 4.462361 43.754417 10.606302 14.528396 0.492886 0.000000 0.000000 0.000000 3.300189 1.014939 -0.344843 -8.306945 -1.235853 -4.354127 -3.265552 -1.520576 17.727532 -0.014469 0.156881 -0.012740 -3.341738 -0.511531 18.209216 -7.869204 -11.629480 -13.517936 0.000000 0.000000 0.000000 -1.526035 0.142187 15.089020 5.736934 -8.648619 1.107520 -54.815468 -13.975389 -7.829923 7.003981 -27.089131 4.180985 0.000000 0.000000 0.000000 -5.869587 1.860056 14.332069 28.761944 4.822843 0.571538 60.663049 4.964782 27.784586 -14.878807 45.297555 -2.654434 0.000000 0.000000 0.000000 
20.778994 83.392609 -68.110741 179.961073 10.837571 179.992956 -2.443857 -2.742863 12.192277 2.658726 -0.013631 -37.251053 4.724509 3.523995 21.096766 -8.137583 -11.728260 3.707554 0.000000 0.000000 0.000000 2.845132 -2.386374 10.767137 -0.381620 -3.010618 -23.672490 -0.065096 4.871398 40.782158 11.594774 15.148489 1.219412 0.000000 0.000000 0.000000 3.625096 0.988071 -0.831256 -7.999996 -1.185629 -4.942845 -3.191729 -1.534253 17.620643 0.042636 0.134250 -0.032513 -3.350841 -0.609677 18.086865 -7.447974 -11.626387 -13.456599 0.000000 0.000000 0.000000 -1.508616 0.053039 14.923661 5.220189 -8.383646 1.347835 -54.862531 -13.946603 -6.886024 6.729944 -28.539404 4.316200 0.000000 0.000000 0.000000 -5.949301 1.748134 14.190449 28.733954 4.914708 0.863391 60.133826 6.026897 27.788140 -14.828211 45.427397 -3.017689 0.000000 0.000000 0.000000 
20.986780 83.160713 -67.398872 179.962179 9.893002 -179.992929 -2.096641 -3.107640 11.916739 2.702600 -0.217095 -37.761394 4.546760 3.324572 21.290591 -8.228356 -12.075191 4.256757 0.000000 0.000000 0.000000 3.059739 -2.314724 10.384158 -0.297172 -1.733841 -22.132620 0.608997 5.456045 38.855905 12.114310 15.757299 0.289177 0.000000 0.000000 0.000000 3.853273 0.819175 -1.261440 -7.710495 -1.092653 -5.436175 -3.119283 -1.332578 17.526332 0.037634 0.058917 -0.032260 -3.264761 -0.582040 17.859058 -6.958632 -11.629072 -13.414570 0.000000 0.000000 0.000000 -1.438765 0.080878 14.711896 4.691062 -8.040591 1.592388 -54.948506 -14.231287 -5.984949 6.299509 -30.789526 4.632365 0.000000 0.000000 0.000000 -5.934856 1.729912 14.006451 28.686091 5.150490 1.209151 59.758466 7.263182 27.584335 -14.508083 45.000961 -3.061597 0.000000 0.000000 0.000000 
